<svg preserveAspectRatio="none" width="100%" height="100%" overflow="visible" style="display: block;" viewBox="0 0 20 20" fill="none" xmlns="http://www.w3.org/2000/svg">
<g id="X">
<path id="Vector" d="M16.2882 14.9617C16.4644 15.1378 16.5633 15.3766 16.5633 15.6257C16.5633 15.8748 16.4644 16.1137 16.2882 16.2898C16.1121 16.4659 15.8733 16.5648 15.6242 16.5648C15.3751 16.5648 15.1362 16.4659 14.9601 16.2898L9.99997 11.3281L5.03825 16.2882C4.86213 16.4643 4.62326 16.5633 4.37418 16.5633C4.12511 16.5633 3.88624 16.4643 3.71012 16.2882C3.534 16.1121 3.43506 15.8732 3.43506 15.6242C3.43506 15.3751 3.534 15.1362 3.71012 14.9601L8.67184 9.99993L3.71168 5.03821C3.53556 4.86209 3.43662 4.62322 3.43662 4.37415C3.43662 4.12508 3.53556 3.88621 3.71168 3.71009C3.8878 3.53397 4.12668 3.43503 4.37575 3.43503C4.62482 3.43503 4.86369 3.53397 5.03981 3.71009L9.99997 8.67181L14.9617 3.70931C15.1378 3.53319 15.3767 3.43424 15.6257 3.43424C15.8748 3.43424 16.1137 3.53319 16.2898 3.70931C16.4659 3.88543 16.5649 4.1243 16.5649 4.37337C16.5649 4.62244 16.4659 4.86131 16.2898 5.03743L11.3281 9.99993L16.2882 14.9617Z" fill="var(--fill-0, black)"/>
</g>
</svg>
